<svg id="visual" viewBox="0 0 960 540" width="960" height="540" xmlns="http://www.w3.org/2000/svg" xmlns:xlink="http://www.w3.org/1999/xlink" version="1.1"><g stroke-width="1" stroke-linejoin="bevel"><path d="M458.7 238L507.3 205L464.7 185Z" fill="#0c2435" stroke="#0c2435"></path><path d="M458.7 238L537.3 244L507.3 205Z" fill="#081a28" stroke="#081a28"></path><path d="M668 106L508.3 96L507.3 205Z" fill="#15384f" stroke="#15384f"></path><path d="M507.3 205L508.3 96L464.7 185Z" fill="#0c2435" stroke="#0c2435"></path><path d="M458.7 238L447.7 336L537.3 244Z" fill="#246688" stroke="#246688"></path><path d="M447.7 336L547.3 340L537.3 244Z" fill="#0c2435" stroke="#0c2435"></path><path d="M508.3 96L412.7 75L464.7 185Z" fill="#0c2435" stroke="#0c2435"></path><path d="M304 167L332 294L458.7 238Z" fill="#00101c" stroke="#00101c"></path><path d="M458.7 238L332 294L447.7 336Z" fill="#1d4e6b" stroke="#1d4e6b"></path><path d="M610 328L625 268L537.3 244Z" fill="#112e42" stroke="#112e42"></path><path d="M537.3 244L677 210L507.3 205Z" fill="#246688" stroke="#246688"></path><path d="M304 167L458.7 238L464.7 185Z" fill="#0c2435" stroke="#0c2435"></path><path d="M547.3 340L610 328L537.3 244Z" fill="#081a28" stroke="#081a28"></path><path d="M412.7 75L304 167L464.7 185Z" fill="#297ea6" stroke="#297ea6"></path><path d="M734.7 304L677 210L625 268Z" fill="#00101c" stroke="#00101c"></path><path d="M625 268L677 210L537.3 244Z" fill="#277297" stroke="#277297"></path><path d="M412.7 75L321 88L304 167Z" fill="#205a7a" stroke="#205a7a"></path><path d="M431.7 465L525.3 415L447.7 336Z" fill="#205a7a" stroke="#205a7a"></path><path d="M447.7 336L525.3 415L547.3 340Z" fill="#0c2435" stroke="#0c2435"></path><path d="M547.3 340L525.3 415L610 328Z" fill="#19435d" stroke="#19435d"></path><path d="M667 0L512.3 0L508.3 96Z" fill="#205a7a" stroke="#205a7a"></path><path d="M508.3 96L439.7 0L412.7 75Z" fill="#15384f" stroke="#15384f"></path><path d="M412.7 75L316 0L321 88Z" fill="#205a7a" stroke="#205a7a"></path><path d="M512.3 0L439.7 0L508.3 96Z" fill="#0c2435" stroke="#0c2435"></path><path d="M677 210L668 106L507.3 205Z" fill="#1d4e6b" stroke="#1d4e6b"></path><path d="M200.3 379L325 373L332 294Z" fill="#00101c" stroke="#00101c"></path><path d="M332 294L325 373L447.7 336Z" fill="#1d4e6b" stroke="#1d4e6b"></path><path d="M325 373L431.7 465L447.7 336Z" fill="#112e42" stroke="#112e42"></path><path d="M677 210L716.7 106L668 106Z" fill="#1d4e6b" stroke="#1d4e6b"></path><path d="M668 106L667 0L508.3 96Z" fill="#1d4e6b" stroke="#1d4e6b"></path><path d="M321 88L240.3 100L304 167Z" fill="#112e42" stroke="#112e42"></path><path d="M304 167L213.3 246L332 294Z" fill="#00101c" stroke="#00101c"></path><path d="M316 0L240.3 100L321 88Z" fill="#277297" stroke="#277297"></path><path d="M177.3 176L213.3 246L304 167Z" fill="#112e42" stroke="#112e42"></path><path d="M200.3 379L331 437L325 373Z" fill="#297ea6" stroke="#297ea6"></path><path d="M325 373L331 437L431.7 465Z" fill="#15384f" stroke="#15384f"></path><path d="M439.7 0L316 0L412.7 75Z" fill="#081a28" stroke="#081a28"></path><path d="M668 412L718.7 336L610 328Z" fill="#205a7a" stroke="#205a7a"></path><path d="M610 328L718.7 336L625 268Z" fill="#297ea6" stroke="#297ea6"></path><path d="M677 210L771.7 144L716.7 106Z" fill="#277297" stroke="#277297"></path><path d="M668 412L610 328L525.3 415Z" fill="#277297" stroke="#277297"></path><path d="M718.7 336L734.7 304L625 268Z" fill="#246688" stroke="#246688"></path><path d="M623 540L668 412L525.3 415Z" fill="#1d4e6b" stroke="#1d4e6b"></path><path d="M716.7 106L667 0L668 106Z" fill="#1d4e6b" stroke="#1d4e6b"></path><path d="M734.7 304L771.7 144L677 210Z" fill="#297ea6" stroke="#297ea6"></path><path d="M716.7 106L768.7 0L667 0Z" fill="#297ea6" stroke="#297ea6"></path><path d="M112.7 84L177.3 176L240.3 100Z" fill="#081a28" stroke="#081a28"></path><path d="M240.3 100L177.3 176L304 167Z" fill="#205a7a" stroke="#205a7a"></path><path d="M135.7 272L200.3 379L213.3 246Z" fill="#112e42" stroke="#112e42"></path><path d="M213.3 246L200.3 379L332 294Z" fill="#277297" stroke="#277297"></path><path d="M328 540L450.7 540L431.7 465Z" fill="#205a7a" stroke="#205a7a"></path><path d="M431.7 465L450.7 540L525.3 415Z" fill="#277297" stroke="#277297"></path><path d="M328 540L431.7 465L331 437Z" fill="#205a7a" stroke="#205a7a"></path><path d="M450.7 540L558.3 540L525.3 415Z" fill="#112e42" stroke="#112e42"></path><path d="M177.3 176L135.7 272L213.3 246Z" fill="#081a28" stroke="#081a28"></path><path d="M734.7 304L825.3 168L771.7 144Z" fill="#112e42" stroke="#112e42"></path><path d="M771.7 144L768.7 0L716.7 106Z" fill="#081a28" stroke="#081a28"></path><path d="M814.3 320L825.3 168L734.7 304Z" fill="#19435d" stroke="#19435d"></path><path d="M316 0L198.3 0L240.3 100Z" fill="#19435d" stroke="#19435d"></path><path d="M177.3 176L104.7 182L135.7 272Z" fill="#0c2435" stroke="#0c2435"></path><path d="M845.3 411L814.3 320L718.7 336Z" fill="#1d4e6b" stroke="#1d4e6b"></path><path d="M718.7 336L814.3 320L734.7 304Z" fill="#0c2435" stroke="#0c2435"></path><path d="M762.7 475L718.7 336L668 412Z" fill="#19435d" stroke="#19435d"></path><path d="M558.3 540L623 540L525.3 415Z" fill="#277297" stroke="#277297"></path><path d="M225.3 540L328 540L331 437Z" fill="#19435d" stroke="#19435d"></path><path d="M862.3 127L768.7 0L771.7 144Z" fill="#205a7a" stroke="#205a7a"></path><path d="M112.7 84L104.7 182L177.3 176Z" fill="#246688" stroke="#246688"></path><path d="M198.3 0L112.7 84L240.3 100Z" fill="#0c2435" stroke="#0c2435"></path><path d="M623 540L762.7 475L668 412Z" fill="#0c2435" stroke="#0c2435"></path><path d="M960 209L862.3 127L825.3 168Z" fill="#15384f" stroke="#15384f"></path><path d="M825.3 168L862.3 127L771.7 144Z" fill="#297ea6" stroke="#297ea6"></path><path d="M814.3 320L870.3 290L825.3 168Z" fill="#246688" stroke="#246688"></path><path d="M845.3 411L870.3 290L814.3 320Z" fill="#081a28" stroke="#081a28"></path><path d="M135.7 272L100.7 363L200.3 379Z" fill="#19435d" stroke="#19435d"></path><path d="M200.3 379L176.3 489L331 437Z" fill="#15384f" stroke="#15384f"></path><path d="M0 270L100.7 363L135.7 272Z" fill="#0c2435" stroke="#0c2435"></path><path d="M110.7 423L176.3 489L200.3 379Z" fill="#1d4e6b" stroke="#1d4e6b"></path><path d="M176.3 489L225.3 540L331 437Z" fill="#112e42" stroke="#112e42"></path><path d="M762.7 475L845.3 411L718.7 336Z" fill="#081a28" stroke="#081a28"></path><path d="M100.7 363L110.7 423L200.3 379Z" fill="#0c2435" stroke="#0c2435"></path><path d="M176.3 489L80.7 540L225.3 540Z" fill="#246688" stroke="#246688"></path><path d="M862.3 127L843.3 0L768.7 0Z" fill="#297ea6" stroke="#297ea6"></path><path d="M623 540L754.7 540L762.7 475Z" fill="#15384f" stroke="#15384f"></path><path d="M762.7 475L856.3 540L845.3 411Z" fill="#0c2435" stroke="#0c2435"></path><path d="M0 80L0 208L104.7 182Z" fill="#1d4e6b" stroke="#1d4e6b"></path><path d="M104.7 182L0 270L135.7 272Z" fill="#246688" stroke="#246688"></path><path d="M198.3 0L103.7 0L112.7 84Z" fill="#19435d" stroke="#19435d"></path><path d="M0 80L104.7 182L112.7 84Z" fill="#205a7a" stroke="#205a7a"></path><path d="M100.7 363L0 433L110.7 423Z" fill="#0c2435" stroke="#0c2435"></path><path d="M0 208L0 270L104.7 182Z" fill="#15384f" stroke="#15384f"></path><path d="M870.3 290L960 209L825.3 168Z" fill="#15384f" stroke="#15384f"></path><path d="M862.3 127L960 60L843.3 0Z" fill="#112e42" stroke="#112e42"></path><path d="M960 246L960 209L870.3 290Z" fill="#112e42" stroke="#112e42"></path><path d="M960 356L960 246L870.3 290Z" fill="#1d4e6b" stroke="#1d4e6b"></path><path d="M103.7 0L0 80L112.7 84Z" fill="#112e42" stroke="#112e42"></path><path d="M0 270L0 352L100.7 363Z" fill="#205a7a" stroke="#205a7a"></path><path d="M110.7 423L80.7 540L176.3 489Z" fill="#19435d" stroke="#19435d"></path><path d="M754.7 540L856.3 540L762.7 475Z" fill="#297ea6" stroke="#297ea6"></path><path d="M845.3 411L960 356L870.3 290Z" fill="#246688" stroke="#246688"></path><path d="M960 477L960 356L845.3 411Z" fill="#277297" stroke="#277297"></path><path d="M960 209L960 60L862.3 127Z" fill="#081a28" stroke="#081a28"></path><path d="M0 433L80.7 540L110.7 423Z" fill="#19435d" stroke="#19435d"></path><path d="M103.7 0L0 0L0 80Z" fill="#112e42" stroke="#112e42"></path><path d="M0 352L0 433L100.7 363Z" fill="#277297" stroke="#277297"></path><path d="M960 60L960 0L843.3 0Z" fill="#112e42" stroke="#112e42"></path><path d="M856.3 540L960 477L845.3 411Z" fill="#15384f" stroke="#15384f"></path><path d="M0 433L0 540L80.7 540Z" fill="#19435d" stroke="#19435d"></path><path d="M856.3 540L960 540L960 477Z" fill="#1d4e6b" stroke="#1d4e6b"></path></g></svg>